<svg xmlns="http://www.w3.org/2000/svg" xmlns:xlink="http://www.w3.org/1999/xlink" fill="none" height="35" viewBox="0 0 35 35" width="35"><clipPath id="a"><path d="m0 0h35v35h-35z" transform="matrix(-1 0 0 1 35 0)"></path></clipPath><g style="clip-path:url(#a);stroke:#73be2f;stroke-width:2;stroke-miterlimit:10;stroke-linecap:round;stroke-linejoin:round"><path d="m16.0625.812547v2.697093"></path><path d="m6.60938.812547v2.697093"></path><path d="m14.5156 20.2925-3.1794 7.4909-3.17939-7.4909"></path><path d="m6.60502 2.1611h-1.60183c-2.24387 0-3.86386 2.14385-3.24742 4.29755l2.68921 9.39545c.87873 3.0701 3.6898 5.1867 6.88842 5.1867 3.1986 0 6.0096-2.1166 6.8884-5.1867l2.6892-9.39545c.6164-2.1537-1.0037-4.29755-3.2475-4.29755h-1.6018"></path><path d="m30.1328 25.0864v-3.304c0-2.6439-2.1472-4.7873-4.7959-4.7873s-4.7959 2.1434-4.7959 4.7873v6.9364c0 2.537-2.0603 4.5937-4.6019 4.5937-2.5415 0-4.6019-2.0567-4.6019-4.5937v-.9353"></path><path d="m34.1875 29.132c0 2.2343-1.8145 4.0456-4.0529 4.0456-2.2383 0-4.0528-1.8113-4.0528-4.0456 0-2.2344 1.8145-4.0457 4.0528-4.0457 2.2384 0 4.0529 1.8113 4.0529 4.0457z"></path></g></svg>