<svg xmlns="http://www.w3.org/2000/svg" xmlns:xlink="http://www.w3.org/1999/xlink" fill="none" height="35" viewBox="0 0 35 35" width="35"><clipPath id="a"><path d="m0 0h35v35h-35z"></path></clipPath><g clip-path="url(#a)" stroke="#73be2f" stroke-miterlimit="10" stroke-width="2"><path d="m25.2812 20.6497v1.8547c0 1.2973 1.0518 2.3491 2.3493 2.3491h3.5406"></path><path d="m33.9726 20.6497h-32.94916v-4.5115h32.94916zm-15.7885 4.2038h-15.17497v-4.2038h15.17497z"></path><path d="m4.63281 24.4212v5.5886"></path><path d="m30.3672 20.6497v9.3601"></path><path d="m32.5547 31.7871c0 1.2081-.9793 2.1875-2.1875 2.1875-1.2081 0-2.1875-.9794-2.1875-2.1875s.9794-2.1875 2.1875-2.1875c1.2082 0 2.1875.9794 2.1875 2.1875z"></path><path d="m6.8203 31.7871c0 1.2081-.97938 2.1875-2.18749 2.1875-1.20818 0-2.1875-.9794-2.1875-2.1875s.97932-2.1875 2.1875-2.1875c1.20811 0 2.18749.9794 2.18749 2.1875z"></path><path d="m4.63281 16.1382v-10.95027c0-2.29885 1.86361-4.16246 4.16246-4.16246 2.29883 0 4.16243 1.86361 4.16243 4.16246v.69105"></path><path d="m16.6722 10.1173h-7.16439v-2.25584c0-1.17038.94879-2.11914 2.11909-2.11914h2.9262c1.1703 0 2.1191.94876 2.1191 2.11914z"></path></g></svg>