<svg xmlns="http://www.w3.org/2000/svg" xmlns:xlink="http://www.w3.org/1999/xlink" fill="none" height="35" viewBox="0 0 35 35" width="35"><clipPath id="a"><path d="m0 0h35v35h-35z" transform="matrix(-1 0 0 -1 35 35)"></path></clipPath><g style="clip-path:url(#a);stroke:#73be2f;stroke-width:2;stroke-miterlimit:10;stroke-linecap:round;stroke-linejoin:round"><path d="m.835007.83342 5.868113 5.86812"></path><path d="m22.8388 25.7729 6.9268 6.9268"></path><path d="m32.6992 29.7655-6.9269-6.9268"></path><path d="m34.168 28.2985-5.8681 5.8681"></path><path d="m22.8389 25.7728-2.9341 2.934c.8103-.8102.8103-2.1238 0-2.934l-11.74071-11.7363v-2.934l2.93861-2.93866h2.9341l11.7361 11.74076c.8103.8103 2.1239.8103 2.9341 0z"></path><path d="m11.1016 8.16383-1.46705-1.46245c-.81023-.81024-2.12386-.81024-2.93409 0-.81017.81017-.81017 2.12379 0 2.93402l1.46251 1.467"></path><path d="m24.3047 18.4377-5.8681 5.8681"></path></g></svg>